<svg width="24" height="25" viewBox="0 0 24 25" fill="none" xmlns="http://www.w3.org/2000/svg">
<path d="M17.79 23.4375H6.21C3.47 23.4375 1.25 21.2075 1.25 18.4675V11.0575C1.25 9.69747 2.09 7.98747 3.17 7.14747L8.56 2.94747C10.18 1.68747 12.77 1.62747 14.45 2.80747L20.63 7.13747C21.82 7.96747 22.75 9.74747 22.75 11.1975V18.4775C22.75 21.2075 20.53 23.4375 17.79 23.4375ZM9.48 4.12747L4.09 8.32747C3.38 8.88747 2.75 10.1575 2.75 11.0575V18.4675C2.75 20.3775 4.3 21.9375 6.21 21.9375H17.79C19.7 21.9375 21.25 20.3875 21.25 18.4775V11.1975C21.25 10.2375 20.56 8.90747 19.77 8.36747L13.59 4.03747C12.45 3.23747 10.57 3.27747 9.48 4.12747Z" fill="#5E0001"/>
<path d="M12 19.4375C11.59 19.4375 11.25 19.0975 11.25 18.6875V15.6875C11.25 15.2775 11.59 14.9375 12 14.9375C12.41 14.9375 12.75 15.2775 12.75 15.6875V18.6875C12.75 19.0975 12.41 19.4375 12 19.4375Z" fill="#5E0001"/>
</svg>
