<svg xmlns="http://www.w3.org/2000/svg" width="28" height="28" viewBox="0 0 28 28" fill="none">
<path d="M23 10.5V9C23 8.07003 23 7.60504 22.8978 7.22354C22.6204 6.18827 21.8117 5.37962 20.7765 5.10222C20.395 5 19.93 5 19 5V5H17.5M23 17.5V18.2C23 19.8802 23 20.7202 22.673 21.362C22.3854 21.9265 21.9265 22.3854 21.362 22.673C20.7202 23 19.8802 23 18.2 23H17.5M5 17.5V19V19C5 19.93 5 20.395 5.10222 20.7765C5.37962 21.8117 6.18827 22.6204 7.22354 22.8978C7.60504 23 8.07003 23 9 23H10.5M5 10.5V9V9C5 8.07003 5 7.60504 5.10222 7.22354C5.37962 6.18827 6.18827 5.37962 7.22354 5.10222C7.60504 5 8.07003 5 9 5V5H10.5" stroke="white" stroke-width="1.7" stroke-linecap="round" stroke-linejoin="round"/>
<script xmlns=""/></svg>