<svg xmlns="http://www.w3.org/2000/svg" width="28" height="28" viewBox="0 0 28 28" fill="none">
<path fill-rule="evenodd" clip-rule="evenodd" d="M9.05782 9.7587L13.6504 6.22595V21.7735L9.05782 18.2407C8.55962 17.8575 7.9487 17.6497 7.32015 17.6497H4.00039C3.36526 17.6497 2.85039 17.1348 2.85039 16.4997V11.4997C2.85039 10.8646 3.36526 10.3497 4.00039 10.3497H7.32015C7.9487 10.3497 8.55962 10.1419 9.05782 9.7587ZM15.3504 6.02287C15.3504 4.69539 13.827 3.94529 12.7749 4.75467L8.02131 8.41124C7.82028 8.56588 7.57377 8.64972 7.32015 8.64972H4.00039C2.42638 8.64972 1.15039 9.92571 1.15039 11.4997V16.4997C1.15039 18.0737 2.42638 19.3497 4.00039 19.3497H7.32015C7.57377 19.3497 7.82028 19.4336 8.02131 19.5882L12.7749 23.2448C13.827 24.0541 15.3504 23.3041 15.3504 21.9766V6.02287ZM20.1862 19.6065C19.8708 19.9543 19.3296 19.9234 19.0155 19.5744C18.7015 19.2255 18.7346 18.6912 19.0409 18.3355C20.0434 17.1711 20.6494 15.6557 20.6494 13.9987C20.6494 12.3425 20.044 10.8278 19.0425 9.66368C18.7364 9.30794 18.7034 8.77382 19.0173 8.425C19.3315 8.07595 19.8729 8.04512 20.1882 8.39308C21.5312 9.87493 22.3494 11.8412 22.3494 13.9987C22.3494 16.1572 21.5304 18.1244 20.1862 19.6065Z" fill="white"/>
<script xmlns=""/></svg>