<svg
								xmlns="http://www.w3.org/2000/svg"
								width="28"
								height="28"
								viewBox="0 0 28 28"
								fill="none"
								
							>
								<path
									fill-rule="evenodd"
									clip-rule="evenodd"
									d="M7.89559 8.8098C7.76231 8.67653 7.56531 8.63899 7.37706 8.64831C7.35814 8.64925 7.33916 8.64972 7.32015 8.64972H4.00039C2.42638 8.64972 1.15039 9.92571 1.15039 11.4997V16.4997C1.15039 18.0737 2.42638 19.3497 4.00039 19.3497H7.32015C7.57377 19.3497 7.82028 19.4336 8.02131 19.5882L12.7749 23.2448C13.827 24.0541 15.3504 23.3041 15.3504 21.9766V16.4717C15.3504 16.3391 15.2977 16.2119 15.2039 16.1182L14.5039 15.4182C14.189 15.1032 13.6504 15.3263 13.6504 15.7717V20.7581C13.6504 21.1729 13.1743 21.4073 12.8455 21.1544L9.05782 18.2407C8.55962 17.8575 7.9487 17.6497 7.32015 17.6497H4.00039C3.36526 17.6497 2.85039 17.1348 2.85039 16.4997V11.4997C2.85039 10.8646 3.36526 10.3497 4.00039 10.3497H7.32015C7.69537 10.3497 8.0643 10.2757 8.40673 10.1345C8.69576 10.0153 8.73029 9.6445 8.50921 9.42343L7.89559 8.8098ZM13.7968 11.8826C13.7031 11.7889 13.6504 11.6617 13.6504 11.5291V7.24138C13.6504 6.82655 13.1743 6.59214 12.8455 6.84507L10.8839 8.35403C10.6848 8.50715 10.4031 8.48886 10.2255 8.31127L9.72632 7.8121C9.5129 7.59868 9.53578 7.24626 9.77501 7.06224L12.7749 4.75467C13.827 3.94529 15.3504 4.69539 15.3504 6.02287V12.2291C15.3504 12.6745 14.8118 12.8976 14.4968 12.5826L13.7968 11.8826Z"
									fill="white"
								/>
								<path
									d="M3 5L18.5 20.5"
									stroke="white"
									stroke-width="1.7"
									stroke-linecap="round"
									stroke-linejoin="round"
								/>
								<script xmlns="" />
							</svg>