<svg
							xmlns="http://www.w3.org/2000/svg"
							width="28"
							height="28"
							viewBox="0 0 28 28"
							fill="none"
							
						>
							<path
								d="M13.7431 6.37729L20.2155 10.0989C22.8702 11.6254 24.1976 12.3886 24.4298 13.4794C24.5029 13.8226 24.5029 14.1774 24.4298 14.5206C24.1976 15.6114 22.8702 16.3746 20.2155 17.9011L13.7431 21.6227C11.1025 23.1411 9.78217 23.9003 8.72494 23.5555C8.39214 23.447 8.08584 23.2698 7.82586 23.0354C7 22.2907 7 20.7677 7 17.7216V10.2784C7 7.23233 7 5.7093 7.82586 4.96464C8.08584 4.73022 8.39214 4.55302 8.72494 4.4445C9.78217 4.09975 11.1025 4.85893 13.7431 6.37729Z"
								stroke="white"
								stroke-width="1.7"
								stroke-linecap="round"
								stroke-linejoin="round"
							/>
							<script xmlns="" />
						</svg>