<svg xmlns="http://www.w3.org/2000/svg" width="28" height="28" viewBox="0 0 28 28" fill="none">
<path d="M12.4903 24.8819L12.7787 24.0823L12.7787 24.0823L12.4903 24.8819ZM13.9998 25.0005L13.9998 24.1505L13.9998 24.1505L13.9998 25.0005ZM11.4393 24.0047L10.7042 24.4315L11.4393 24.0047ZM11.0525 22.5408L10.2163 22.6929L10.2163 22.6929L11.0525 22.5408ZM10.3726 21.6886L10.0105 22.4576L10.3726 21.6886ZM9.15158 20.9847L9.63581 20.2861L9.63581 20.2861L9.15158 20.9847ZM8.07723 20.823L8.36369 21.6233L8.36369 21.6233L8.07723 20.823ZM6.61608 21.22L6.61401 22.07L6.61401 22.07L6.61608 21.22ZM5.33097 20.7484L4.78272 21.398L4.78272 21.398L5.33097 20.7484ZM3.8215 18.134L2.98484 18.284L2.98484 18.284L3.8215 18.134ZM4.05563 16.7852L4.79278 17.2084L4.79278 17.2084L4.05563 16.7852ZM5.13001 15.7183L5.67984 16.3665L5.67984 16.3665L5.13001 15.7183ZM5.52717 14.7071L6.37427 14.637L5.52717 14.7071ZM5.52822 13.2963L4.6812 13.2252L4.6812 13.2252L5.52822 13.2963ZM5.13076 12.2827L5.68058 11.6345L5.68058 11.6345L5.13076 12.2827ZM4.05637 11.2158L3.31921 11.6391L4.05637 11.2158ZM3.82224 9.8671L2.98559 9.71708L2.98559 9.71708L3.82224 9.8671ZM4.47422 8.50054L5.21034 8.92554L5.21034 8.92554L4.47422 8.50054ZM5.33171 7.25263L4.78346 6.60307L5.33171 7.25263ZM6.61682 6.78101L6.61475 5.93101L6.61475 5.93101L6.61682 6.78101ZM8.07797 7.17801L7.79151 7.97829L8.07797 7.17801ZM9.15384 7.01661L8.67005 6.31772L9.15384 7.01661ZM10.3742 6.312L10.0108 5.54359L10.0108 5.54359L10.3742 6.312ZM11.0525 5.46019L10.2163 5.30814L10.2163 5.30814L11.0525 5.46019ZM11.4393 3.9963L12.1744 4.42309L12.1744 4.42309L11.4393 3.9963ZM12.4903 3.11916L12.7787 3.91874L12.7787 3.91874L12.4903 3.11916ZM13.9998 3.00051L13.9998 2.15051L13.9998 2.15051L13.9998 3.00051ZM15.5092 3.11916L15.2208 3.91874L15.2208 3.91874L15.5092 3.11916ZM16.5602 3.9963L15.8251 4.42309L15.8251 4.42309L16.5602 3.9963ZM16.947 5.46019L16.1107 5.61224L16.1107 5.61224L16.947 5.46019ZM17.627 6.31245L17.989 5.5434L17.989 5.54339L17.627 6.31245ZM18.8479 7.0163L19.3322 6.31772L19.3322 6.31772L18.8479 7.0163ZM19.9223 7.17799L19.6358 6.37771L19.9223 7.17799ZM21.3834 6.78098L21.3814 7.63098L21.3814 7.63098L21.3834 6.78098ZM22.6686 7.2526L22.1203 7.90216L22.1203 7.90216L22.6686 7.2526ZM24.178 9.86707L23.3414 10.0171L23.3414 10.0171L24.178 9.86707ZM23.9439 11.2158L24.681 11.639L23.9439 11.2158ZM22.8695 12.2827L23.4193 12.9309L22.8695 12.2827ZM22.4724 13.294L23.3195 13.2239L22.4724 13.294ZM22.4715 14.7019L21.6245 14.631L21.6245 14.631L22.4715 14.7019ZM22.8702 15.7183L23.4201 15.0701L22.8702 15.7183ZM23.9446 16.7852L24.6818 16.362L24.6818 16.362L23.9446 16.7852ZM24.1788 18.134L23.3421 17.984L23.3421 17.984L24.1788 18.134ZM23.5268 19.5005L22.7907 19.0755L23.5268 19.5005ZM22.6693 20.7484L23.2175 21.398L23.2175 21.398L22.6693 20.7484ZM21.3842 21.2201L21.3821 20.3701L21.3821 20.3701L21.3842 21.2201ZM19.923 20.8231L20.2095 20.0228L20.2095 20.0228L19.923 20.8231ZM18.8452 20.9848L18.3614 20.2858L18.3614 20.2858L18.8452 20.9848ZM17.6253 21.689L17.9887 22.4574L17.9887 22.4574L17.6253 21.689ZM16.947 22.5408L16.1107 22.3888L16.947 22.5408ZM16.5602 24.0047L15.8251 23.5779L15.8251 23.5779L16.5602 24.0047ZM15.5092 24.8819L15.7976 25.6814L15.7976 25.6814L15.5092 24.8819ZM12.2019 25.6814C12.705 25.8629 13.282 25.8505 13.9998 25.8505L13.9998 24.1505C13.1435 24.1505 12.9334 24.1381 12.7787 24.0823L12.2019 25.6814ZM10.7042 24.4315C11.0409 25.0114 11.5712 25.4539 12.2019 25.6814L12.7787 24.0823C12.5242 23.9905 12.3102 23.8119 12.1744 23.5779L10.7042 24.4315ZM10.2163 22.6929C10.3446 23.3991 10.4356 23.9689 10.7042 24.4315L12.1744 23.5779C12.0918 23.4357 12.042 23.2313 11.8888 22.3888L10.2163 22.6929ZM10.0105 22.4576C10.1411 22.5191 10.2025 22.617 10.2163 22.6929L11.8888 22.3888C11.7651 21.7081 11.2998 21.1856 10.7346 20.9195L10.0105 22.4576ZM8.66734 21.6833C9.09483 21.9796 9.54438 22.2382 10.0105 22.4576L10.7346 20.9195C10.353 20.7399 9.98523 20.5283 9.63581 20.2861L8.66734 21.6833ZM8.36369 21.6233C8.43514 21.5977 8.54948 21.6016 8.66734 21.6833L9.63581 20.2861C9.12399 19.9314 8.44066 19.7901 7.79077 20.0228L8.36369 21.6233ZM6.61401 22.07C7.1489 22.0713 7.68794 21.8652 8.36369 21.6233L7.79077 20.0228C6.98456 20.3113 6.78263 20.3704 6.61815 20.37L6.61401 22.07ZM4.78272 21.398C5.29509 21.8304 5.94353 22.0684 6.61401 22.07L6.61815 20.37C6.34761 20.3694 6.08596 20.2734 5.87921 20.0989L4.78272 21.398ZM3.73736 19.9255C4.09623 20.5471 4.37397 21.053 4.78272 21.398L5.87921 20.0989C5.75352 19.9928 5.63775 19.8171 5.2096 19.0755L3.73736 19.9255ZM2.98484 18.284C3.07925 18.8105 3.37849 19.3039 3.73736 19.9255L5.2096 19.0755C4.78145 18.3339 4.68719 18.1458 4.65816 17.9839L2.98484 18.284ZM3.31847 16.362C2.98465 16.9435 2.86651 17.624 2.98484 18.284L4.65816 17.9839C4.61041 17.7176 4.65808 17.443 4.79278 17.2084L3.31847 16.362ZM4.58019 15.0701C4.03283 15.5344 3.58478 15.8981 3.31847 16.362L4.79278 17.2084C4.87467 17.0658 5.02682 16.9204 5.67984 16.3665L4.58019 15.0701ZM4.68006 14.7771C4.69188 14.92 4.63806 15.021 4.58019 15.0701L5.67984 16.3665C6.20625 15.92 6.42561 15.2576 6.37427 14.637L4.68006 14.7771ZM4.6812 13.2252C4.63803 13.7391 4.63714 14.2582 4.68006 14.7771L6.37427 14.637C6.33919 14.2129 6.33989 13.7882 6.37523 13.3675L4.6812 13.2252ZM4.58093 12.931C4.63934 12.9805 4.69323 13.082 4.6812 13.2252L6.37523 13.3675C6.42749 12.7454 6.2078 12.0817 5.68058 11.6345L4.58093 12.931ZM3.31921 11.6391C3.58553 12.1029 4.03357 12.4667 4.58093 12.931L5.68058 11.6345C5.02756 11.0806 4.87541 10.9353 4.79352 10.7926L3.31921 11.6391ZM2.98559 9.71708C2.86726 10.377 2.98539 11.0576 3.31921 11.6391L4.79352 10.7926C4.65882 10.558 4.61115 10.2834 4.6589 10.0171L2.98559 9.71708ZM3.7381 8.07554C3.37923 8.69712 3.07999 9.19059 2.98559 9.71708L4.6589 10.0171C4.68793 9.85522 4.78219 9.66711 5.21034 8.92554L3.7381 8.07554ZM4.78346 6.60307C4.37471 6.94807 4.09697 7.45396 3.7381 8.07554L5.21034 8.92554C5.63849 8.18396 5.75426 8.00827 5.87995 7.90219L4.78346 6.60307ZM6.61475 5.93101C5.94427 5.93265 5.29584 6.17061 4.78346 6.60307L5.87995 7.90219C6.0867 7.72769 6.34835 7.63167 6.61889 7.63101L6.61475 5.93101ZM8.36443 6.37774C7.68868 6.13585 7.14964 5.92971 6.61475 5.93101L6.61889 7.63101C6.78337 7.63061 6.9853 7.6897 7.79151 7.97829L8.36443 6.37774ZM8.67005 6.31772C8.55181 6.39956 8.43676 6.40363 8.36443 6.37774L7.79151 7.97829C8.44144 8.21094 9.1251 8.07028 9.63763 7.7155L8.67005 6.31772ZM9.32476 5.90318C9.09912 6.03345 8.88083 6.17181 8.67005 6.31772L9.63763 7.7155C9.81029 7.59598 9.98936 7.48246 10.1748 7.37542L9.32476 5.90318ZM10.0108 5.54359C9.77917 5.65314 9.5503 5.77296 9.32476 5.90318L10.1748 7.37542C10.3601 7.26843 10.5478 7.17014 10.7376 7.0804L10.0108 5.54359ZM10.2163 5.30814C10.2025 5.38405 10.1412 5.48195 10.0108 5.54359L10.7376 7.0804C11.3014 6.81378 11.7653 6.29179 11.8888 5.61224L10.2163 5.30814ZM10.7042 3.5695C10.4356 4.03208 10.3446 4.60197 10.2163 5.30814L11.8888 5.61224C12.042 4.76976 12.0918 4.56533 12.1744 4.42309L10.7042 3.5695ZM12.2019 2.31959C11.5712 2.54709 11.0409 2.98967 10.7042 3.5695L12.1744 4.42309C12.3102 4.18912 12.5242 4.01053 12.7787 3.91874L12.2019 2.31959ZM13.9998 2.15051C13.282 2.15051 12.705 2.1381 12.2019 2.31959L12.7787 3.91874C12.9334 3.86293 13.1435 3.85051 13.9998 3.85051L13.9998 2.15051ZM15.7976 2.31959C15.2945 2.1381 14.7175 2.15051 13.9998 2.15051L13.9998 3.85051C14.8561 3.85051 15.0661 3.86293 15.2208 3.91874L15.7976 2.31959ZM17.2953 3.5695C16.9586 2.98967 16.4283 2.54709 15.7976 2.31959L15.2208 3.91874C15.4753 4.01053 15.6893 4.18912 15.8251 4.42309L17.2953 3.5695ZM17.7833 5.30813C17.6549 4.60197 17.5639 4.03208 17.2953 3.5695L15.8251 4.42309C15.9077 4.56533 15.9575 4.76975 16.1107 5.61224L17.7833 5.30813ZM17.989 5.54339C17.8584 5.48194 17.7971 5.38402 17.7833 5.30813L16.1107 5.61224C16.2344 6.29295 16.6997 6.81545 17.265 7.08151L17.989 5.54339ZM19.3322 6.31772C18.9047 6.0214 18.4551 5.76283 17.989 5.5434L17.265 7.08151C17.6466 7.26114 18.0143 7.47268 18.3637 7.71489L19.3322 6.31772ZM19.6358 6.37771C19.5644 6.40329 19.45 6.39941 19.3322 6.31772L18.3637 7.71488C18.8755 8.06966 19.5589 8.2109 20.2088 7.97826L19.6358 6.37771ZM21.3855 5.93099C20.8506 5.92968 20.3116 6.13582 19.6358 6.37771L20.2088 7.97826C21.015 7.68968 21.2169 7.63058 21.3814 7.63098L21.3855 5.93099ZM23.2168 6.60304C22.7044 6.17059 22.056 5.93262 21.3855 5.93099L21.3814 7.63098C21.6519 7.63164 21.9136 7.72766 22.1203 7.90216L23.2168 6.60304ZM24.2622 8.07551C23.9033 7.45393 23.6256 6.94804 23.2168 6.60304L22.1203 7.90216C22.246 8.00825 22.3618 8.18394 22.7899 8.92551L24.2622 8.07551ZM25.0147 9.71706C24.9203 9.19057 24.621 8.69709 24.2622 8.07551L22.7899 8.92551C23.2181 9.66709 23.3123 9.85519 23.3414 10.0171L25.0147 9.71706ZM24.681 11.639C25.0149 11.0576 25.133 10.377 25.0147 9.71706L23.3414 10.0171C23.3891 10.2834 23.3414 10.558 23.2067 10.7926L24.681 11.639ZM23.4193 12.9309C23.9667 12.4667 24.4147 12.1029 24.681 11.639L23.2067 10.7926C23.1248 10.9353 22.9727 11.0806 22.3197 11.6345L23.4193 12.9309ZM23.3195 13.2239C23.3076 13.081 23.3615 12.98 23.4193 12.9309L22.3197 11.6345C21.7933 12.081 21.5739 12.7434 21.6252 13.364L23.3195 13.2239ZM23.3186 14.7728C23.3615 14.2598 23.3623 13.7418 23.3195 13.2239L21.6252 13.364C21.6603 13.7873 21.6596 14.2111 21.6245 14.631L23.3186 14.7728ZM23.4201 15.0701C23.3608 15.0199 23.3065 14.9172 23.3186 14.7728L21.6245 14.631C21.5724 15.254 21.7924 15.9187 22.3204 16.3666L23.4201 15.0701ZM24.6818 16.362C24.4155 15.8981 23.9674 15.5344 23.4201 15.0701L22.3204 16.3666C22.9734 16.9205 23.1256 17.0658 23.2075 17.2084L24.6818 16.362ZM25.0154 18.284C25.1337 17.624 25.0156 16.9435 24.6818 16.362L23.2075 17.2084C23.3422 17.4431 23.3898 17.7177 23.3421 17.984L25.0154 18.284ZM24.2629 19.9255C24.6218 19.304 24.921 18.8105 25.0154 18.284L23.3421 17.984C23.3131 18.1459 23.2188 18.334 22.7907 19.0755L24.2629 19.9255ZM23.2175 21.398C23.6263 21.053 23.904 20.5471 24.2629 19.9255L22.7907 19.0755C22.3625 19.8171 22.2467 19.9928 22.121 20.0989L23.2175 21.398ZM21.3862 22.0701C22.0567 22.0684 22.7052 21.8305 23.2175 21.398L22.1211 20.0989C21.9143 20.2734 21.6527 20.3694 21.3821 20.3701L21.3862 22.0701ZM19.6366 21.6233C20.3123 21.8652 20.8514 22.0714 21.3863 22.0701L21.3821 20.3701C21.2176 20.3705 21.0157 20.3114 20.2095 20.0228L19.6366 21.6233ZM19.3289 21.6837C19.4478 21.6014 19.5636 21.5972 19.6366 21.6233L20.2095 20.0228C19.5589 19.7899 18.8745 19.9307 18.3614 20.2858L19.3289 21.6837ZM18.6748 22.0979C18.9002 21.9677 19.1183 21.8295 19.3289 21.6837L18.3614 20.2858C18.1889 20.4052 18.01 20.5187 17.8248 20.6256L18.6748 22.0979ZM17.9887 22.4574C18.2203 22.3479 18.4492 22.2281 18.6748 22.0979L17.8248 20.6256C17.6394 20.7326 17.4517 20.8309 17.2619 20.9206L17.9887 22.4574ZM17.7833 22.6929C17.7971 22.617 17.8583 22.5191 17.9887 22.4574L17.2619 20.9206C16.6981 21.1872 16.2342 21.7092 16.1107 22.3888L17.7833 22.6929ZM17.2953 24.4315C17.5639 23.969 17.6549 23.3991 17.7833 22.6929L16.1107 22.3888C15.9575 23.2313 15.9077 23.4357 15.8251 23.5779L17.2953 24.4315ZM15.7976 25.6814C16.4283 25.4539 16.9586 25.0114 17.2953 24.4315L15.8251 23.5779C15.6893 23.8119 15.4753 23.9905 15.2208 24.0823L15.7976 25.6814ZM13.9998 25.8505C14.7175 25.8505 15.2945 25.8629 15.7976 25.6814L15.2208 24.0823C15.0661 24.1381 14.8561 24.1505 13.9998 24.1505L13.9998 25.8505ZM16.2949 12.6761C17.0267 13.9436 16.5924 15.5643 15.3249 16.2961L16.1749 17.7683C18.2555 16.5671 18.9684 13.9067 17.7671 11.8261L16.2949 12.6761ZM12.6749 11.7062C13.9424 10.9744 15.5631 11.4087 16.2949 12.6761L17.7671 11.8261C16.5659 9.74556 13.9055 9.0327 11.8249 10.2339L12.6749 11.7062ZM11.705 15.3261C10.9732 14.0587 11.4075 12.4379 12.6749 11.7062L11.8249 10.2339C9.74436 11.4351 9.0315 14.0956 10.2327 16.1761L11.705 15.3261ZM15.3249 16.2961C14.0575 17.0279 12.4367 16.5936 11.705 15.3261L10.2327 16.1761C11.4339 18.2567 14.0944 18.9696 16.1749 17.7683L15.3249 16.2961Z" fill="white"/>
<script xmlns=""/></svg>