<svg width="24" height="24" viewBox="0 0 24 24" fill="none" xmlns="http://www.w3.org/2000/svg">
<path d="M18.25 14.0016V10.7516H15V9.25156H18.25V6.00156H19.75V9.25156H23V10.7516H19.75V14.0016H18.25ZM9 11.9766C7.9 11.9766 7 11.6266 6.3 10.9266C5.6 10.2266 5.25 9.32656 5.25 8.22656C5.25 7.12656 5.6 6.22656 6.3 5.52656C7 4.82656 7.9 4.47656 9 4.47656C10.1 4.47656 11 4.82656 11.7 5.52656C12.4 6.22656 12.75 7.12656 12.75 8.22656C12.75 9.32656 12.4 10.2266 11.7 10.9266C11 11.6266 10.1 11.9766 9 11.9766ZM1 20.0016V17.6516C1 17.0682 1.14583 16.5391 1.4375 16.0641C1.72917 15.5891 2.15 15.2349 2.7 15.0016C3.95 14.4516 5.0625 14.0641 6.0375 13.8391C7.0125 13.6141 8 13.5016 9 13.5016C10 13.5016 10.9833 13.6141 11.95 13.8391C12.9167 14.0641 14.025 14.4516 15.275 15.0016C15.825 15.2516 16.25 15.6099 16.55 16.0766C16.85 16.5432 17 17.0682 17 17.6516V20.0016H1ZM2.5 18.5016H15.5V17.6516C15.5 17.3849 15.425 17.1307 15.275 16.8891C15.125 16.6474 14.925 16.4682 14.675 16.3516C13.4917 15.8016 12.4917 15.4391 11.675 15.2641C10.8583 15.0891 9.96667 15.0016 9 15.0016C8.03333 15.0016 7.1375 15.0891 6.3125 15.2641C5.4875 15.4391 4.48333 15.8016 3.3 16.3516C3.05 16.4682 2.85417 16.6474 2.7125 16.8891C2.57083 17.1307 2.5 17.3849 2.5 17.6516V18.5016ZM9 10.4766C9.65 10.4766 10.1875 10.2641 10.6125 9.83906C11.0375 9.41406 11.25 8.87656 11.25 8.22656C11.25 7.57656 11.0375 7.03906 10.6125 6.61406C10.1875 6.18906 9.65 5.97656 9 5.97656C8.35 5.97656 7.8125 6.18906 7.3875 6.61406C6.9625 7.03906 6.75 7.57656 6.75 8.22656C6.75 8.87656 6.9625 9.41406 7.3875 9.83906C7.8125 10.2641 8.35 10.4766 9 10.4766Z" fill="black"/>
</svg>
