<svg width="12" height="13" viewBox="0 0 12 13" fill="none" xmlns="http://www.w3.org/2000/svg">
<g clip-path="url(#clip0_3193_55940)">
<path d="M5.99906 12.7872C9.28847 12.7872 12 10.0716 12 6.78812C12 3.50056 9.28434 0.789062 5.99492 0.789062C2.7115 0.789062 0 3.50056 0 6.78812C0 10.0716 2.71563 12.7872 5.99906 12.7872ZM5.99906 12.0114C3.10538 12.0114 0.779919 9.68181 0.779919 6.78812C0.779919 3.89444 3.10125 1.563 5.99492 1.563C8.88862 1.563 11.2242 3.89444 11.2242 6.78812C11.2242 9.68181 8.89275 12.0114 5.99906 12.0114ZM3.05908 8.14429C3.19587 8.29308 3.42592 8.29308 3.55631 8.15072L5.99906 5.60189L8.43996 8.15072C8.57451 8.29308 8.80455 8.29308 8.93721 8.14429C9.07129 8.01801 9.07088 7.79996 8.9248 7.65347L6.45215 5.06464C6.1606 4.75887 5.83195 4.76258 5.54826 5.06464L3.07146 7.65347C2.92725 7.79996 2.92498 8.01801 3.05908 8.14429Z" fill="#009BA2"/>
</g>
<defs>
<clipPath id="clip0_3193_55940">
<rect width="12" height="12.0041" fill="white" transform="translate(0 0.789062)"/>
</clipPath>
</defs>
</svg>
