<svg width="24" height="32" viewBox="0 0 24 32" fill="none" xmlns="http://www.w3.org/2000/svg">
<path d="M21.4802 10.6663C22.8465 10.6663 23.9469 9.5659 23.9469 8.19153C23.9469 6.82524 22.8465 5.72485 21.4802 5.72485C20.1059 5.72485 18.9974 6.82524 18.9974 8.19153C18.9974 9.5659 20.1059 10.6663 21.4802 10.6663ZM1.17434 13.87H6.85043L10.3855 17.0806C10.5124 17.1913 10.4449 17.3813 10.2784 17.3813H6.23578C5.89149 17.3813 5.54719 17.456 5.30836 17.6985L1.08059 21.9416C0.622735 22.4075 0.611016 23.124 1.08059 23.5936C1.53844 24.0515 2.27473 24.0442 2.73258 23.5936L6.5332 19.7966L11.172 20.56C12.6554 20.7988 14.1704 20.3482 15.2429 19.2523L17.862 16.6377C18.081 16.4187 18.3865 16.544 18.3865 16.845V18.6457L15.2312 21.8046C14.7806 22.2625 14.7887 22.9988 15.2312 23.4566C15.4583 23.6801 15.7557 23.8009 16.073 23.8009C16.3704 23.8009 16.6678 23.6801 16.8949 23.4566L20.3945 19.957C20.6099 19.738 20.7352 19.4208 20.7352 19.1234V13.9132C20.7352 13.1616 20.4963 12.5506 20.0538 12.1125L12.9724 5.05453V8.36215L16.1081 11.4979C16.3235 11.7132 16.3082 11.9484 16.1081 12.1477L13.0042 15.2597L7.96981 11.7213C7.75078 11.5726 7.57863 11.5213 7.26141 11.5213H1.17434C0.524531 11.5213 0 12.0458 0 12.6956C0 13.3337 0.524531 13.87 1.17434 13.87ZM13.7207 25.4882C15.3352 25.4882 16.5504 24.2741 16.5823 22.6814H15.5213C15.4857 23.6872 14.7212 24.4235 13.7207 24.4235C12.71 24.4235 11.9156 23.7887 11.9156 22.6266V0.524649C11.9156 0.238477 11.6772 0 11.3873 0C11.1012 0 10.8546 0.238477 10.8546 0.524649V22.6266C10.8546 24.4116 12.0852 25.4882 13.7207 25.4882ZM16.0532 31.819C16.3555 31.819 16.5859 31.5805 16.5859 31.2826V17.428H15.5249V31.2826C15.5249 31.5805 15.7553 31.819 16.0532 31.819Z" fill="url(#paint0_linear_3235_56706)"/>
<defs>
<linearGradient id="paint0_linear_3235_56706" x1="11.9734" y1="0" x2="11.9734" y2="31.819" gradientUnits="userSpaceOnUse">
<stop stop-color="#009BA2"/>
<stop offset="1" stop-color="#6CB49F"/>
</linearGradient>
</defs>
</svg>
