<svg width="23" height="26" viewBox="0 0 23 26" fill="none" xmlns="http://www.w3.org/2000/svg">
<g clip-path="url(#clip0_3230_56668)">
<path d="M0.601562 4.12305C0.601562 8.71586 2.66312 11.4333 6.83149 12.9756C7.57528 14.0215 8.47375 14.8125 9.30074 15.297V20.2924H7.55699C6.11535 20.2924 5.3398 21.1218 5.3398 22.5024V24.7694C5.3398 25.1768 5.65187 25.4602 6.04234 25.4602H16.9529C17.3434 25.4602 17.6554 25.1768 17.6554 24.7694V22.5024C17.6554 21.1218 16.8718 20.2924 15.4302 20.2924H13.6945V15.3051C14.5215 14.8206 15.428 14.0215 16.1718 12.9756C20.3321 11.4252 22.3937 8.71586 22.3937 4.12305C22.3937 3.0468 21.6945 2.37391 20.5569 2.37391H18.5014C18.3793 1.23672 17.6009 0.52832 16.3247 0.52832H6.67059C5.41692 0.52832 4.61594 1.21047 4.49383 2.37391H2.43836C1.3007 2.37391 0.601562 3.0468 0.601562 4.12305ZM1.91043 4.24352C1.91043 3.95793 2.11645 3.74383 2.41012 3.74383H4.4534V6.3168C4.4534 8.0807 4.91125 9.71207 5.61602 11.1127C3.19949 9.80231 1.91043 7.58699 1.91043 4.24352ZM5.82696 6.64492V2.73824C5.82696 2.24289 6.17524 1.90188 6.67059 1.90188H16.3247C16.82 1.90188 17.1683 2.24289 17.1683 2.73824V6.64492C17.1683 10.6351 13.4626 14.7549 11.4995 14.7549C9.53266 14.7549 5.82696 10.6351 5.82696 6.64492ZM6.71336 24.0866V22.5024C6.71336 21.9917 7.03903 21.666 7.55699 21.666H15.4302C15.9562 21.666 16.2819 21.9917 16.2819 22.5024V24.0866H6.71336ZM10.6743 20.2924V15.9814C10.9665 16.0706 11.2425 16.1131 11.4995 16.1131C11.7528 16.1131 12.0288 16.0706 12.3209 15.9814V20.2924H10.6743ZM17.3792 11.1127C18.084 9.71207 18.5418 8.0807 18.5418 6.3168V3.74383H20.5851C20.8788 3.74383 21.0848 3.95793 21.0848 4.24352C21.0848 7.58699 19.7957 9.80231 17.3792 11.1127Z" fill="white" fill-opacity="0.85"/>
</g>
<defs>
<clipPath id="clip0_3230_56668">
<rect width="21.7921" height="24.9436" fill="white" transform="translate(0.601562 0.52832)"/>
</clipPath>
</defs>
</svg>
