<svg width="74" id="dy_svg" height="89" viewBox="0 0 74 89" fill="none" xmlns="http://www.w3.org/2000/svg">
<g clip-path="url(#clip0_3079_55922)">
<path d="M0 44.1004C0 64.3738 16.7464 81.0949 36.9942 81.0949C57.2789 81.0949 74 64.3738 74 44.1004C74 26.1473 60.8838 10.9833 43.7929 7.73852V2.15776C43.7929 0.0191414 42.3173 -0.601642 40.6113 0.619638L29.1306 8.63926C27.6969 9.64808 27.6715 11.1099 29.1306 12.1327L40.5859 20.1778C42.3173 21.4245 43.7929 20.8037 43.7929 18.6511V12.6358C58.3532 15.7165 69.1905 28.6017 69.1905 44.1004C69.1905 61.9449 54.8386 76.3106 36.9942 76.3106C19.1498 76.3106 4.7586 61.9449 4.78407 44.1004C4.8095 32.9049 10.5057 23.0748 19.1627 17.3653C20.3206 16.5191 20.6857 15.1857 19.9923 14.0024C19.2988 12.856 17.7732 12.5189 16.5276 13.4643C6.60213 20.1332 0 31.4212 0 44.1004ZM26.659 58.9352C27.7887 58.9352 28.5394 58.1335 28.5394 56.9047V32.5372C28.5394 31.1302 27.7633 30.2154 26.4236 30.2154C25.5992 30.2154 25.0356 30.4788 23.9224 31.1925L18.2262 34.9772C17.5634 35.4531 17.2491 35.9684 17.2491 36.6823C17.2491 37.6593 18.0138 38.4748 18.9654 38.4748C19.5061 38.4748 19.7581 38.3615 20.3128 37.9709L24.8258 34.8516H24.8294V56.9047C24.8294 58.1083 25.5432 58.9352 26.659 58.9352ZM46.265 59.4693C52.3193 59.4693 56.3513 53.6668 56.3513 44.8143C56.3513 35.9224 52.3193 30.0575 46.265 30.0575C40.1877 30.0575 36.156 35.9224 36.156 44.8143C36.156 53.6668 40.1877 59.4693 46.265 59.4693ZM46.265 55.9094C42.4703 55.9094 39.9677 51.579 39.9677 44.8143C39.9677 37.9617 42.4448 33.6058 46.265 33.6058C50.0625 33.6058 52.5141 37.9362 52.5141 44.8143C52.5141 51.579 50.037 55.9094 46.265 55.9094Z" fill="white" fill-opacity="0.85"/>
</g>
<defs>
<clipPath id="clip0_3079_55922">
<rect width="74" height="88.1694" fill="white"/>
</clipPath>
</defs>
</svg>
