<svg width="74" height="89" viewBox="0 0 74 89" fill="none" xmlns="http://www.w3.org/2000/svg">
<g clip-path="url(#clip0_3079_55930)">
<path d="M0 44.1002C0 64.3736 16.7464 81.0943 36.9942 81.0943C57.2789 81.0943 74 64.3736 74 44.1002C74 31.4208 67.3864 20.1328 57.4722 13.4639C56.2267 12.5185 54.6897 12.8556 53.9963 14.002C53.3143 15.1853 53.6794 16.5187 54.8374 17.3649C63.4941 23.0744 69.1905 32.9043 69.216 44.1002C69.2412 61.9446 54.8386 76.3104 36.9942 76.3104C19.1498 76.3104 4.8095 61.9446 4.8095 44.1002C4.8095 28.5898 15.6582 15.7047 30.2184 12.6354V18.6876C30.2184 20.8148 31.6943 21.4356 33.4255 20.2143L44.9062 12.1692C46.3144 11.1973 46.3399 9.73551 44.9062 8.71265L33.451 0.667581C31.6943 -0.579147 30.2184 0.0416341 30.2184 2.19427V7.73813C13.1047 10.9715 0 26.1355 0 44.1002ZM26.2573 58.9349C27.3757 58.9349 28.1262 58.1332 28.1262 56.9041V32.537C28.1262 31.1298 27.3502 30.215 26.022 30.215C25.1861 30.215 24.6225 30.4784 23.5207 31.1921L17.8245 34.977C17.1617 35.4529 16.836 35.9681 16.836 36.6817C16.836 37.659 17.6006 38.4745 18.5523 38.4745C19.1044 38.4745 19.3564 38.3612 19.8997 37.9706L24.4126 34.8511H24.4277V56.9041C24.4277 58.1077 25.1301 58.9349 26.2573 58.9349ZM45.852 59.4687C51.9064 59.4687 55.9384 53.6665 55.9384 44.814C55.9384 35.9219 51.9064 30.0571 45.852 30.0571C39.7747 30.0571 35.7427 35.9219 35.7427 44.814C35.7427 53.6665 39.7747 59.4687 45.852 59.4687ZM45.852 55.9092C42.057 55.9092 39.5544 51.5788 39.5544 44.814C39.5544 37.9615 42.0318 33.6056 45.852 33.6056C49.6492 33.6056 52.1125 37.936 52.1125 44.814C52.1125 51.5788 49.6237 55.9092 45.852 55.9092Z" fill="white" fill-opacity="0.85"/>
</g>
<defs>
<clipPath id="clip0_3079_55930">
<rect width="74" height="88.108" fill="white" transform="translate(0 0.0302734)"/>
</clipPath>
</defs>
</svg>
