<svg width="17" height="17" viewBox="0 0 17 17" fill="none" xmlns="http://www.w3.org/2000/svg">
<path fill-rule="evenodd" clip-rule="evenodd" d="M4.84875 0.0495C5.7285 0.00899999 6.009 0 8.25 0C10.491 0 10.7715 0.00974999 11.6505 0.0495C12.5295 0.08925 13.1295 0.2295 13.6545 0.43275C14.2042 0.6405 14.703 0.96525 15.1155 1.38525C15.5355 1.797 15.8595 2.295 16.0665 2.8455C16.2705 3.3705 16.41 3.9705 16.4505 4.848C16.491 5.72925 16.5 6.00975 16.5 8.25C16.5 10.491 16.4902 10.7715 16.4505 11.6512C16.4107 12.5287 16.2705 13.1287 16.0665 13.6537C15.8595 14.2043 15.535 14.7031 15.1155 15.1155C14.703 15.5355 14.2042 15.8595 13.6545 16.0665C13.1295 16.2705 12.5295 16.41 11.652 16.4505C10.7715 16.491 10.491 16.5 8.25 16.5C6.009 16.5 5.7285 16.4902 4.84875 16.4505C3.97125 16.4107 3.37125 16.2705 2.84625 16.0665C2.29569 15.8595 1.79687 15.5349 1.3845 15.1155C0.964785 14.7035 0.639986 14.2049 0.43275 13.6545C0.2295 13.1295 0.09 12.5295 0.0495 11.652C0.00899999 10.7707 0 10.4902 0 8.25C0 6.009 0.00974999 5.7285 0.0495 4.8495C0.08925 3.9705 0.2295 3.3705 0.43275 2.8455C0.640292 2.29506 0.965339 1.79648 1.38525 1.3845C1.79703 0.964876 2.29535 0.640083 2.8455 0.43275C3.3705 0.2295 3.9705 0.09 4.848 0.0495H4.84875ZM11.5837 1.5345C10.7137 1.49475 10.4527 1.4865 8.25 1.4865C6.04725 1.4865 5.78625 1.49475 4.91625 1.5345C4.1115 1.57125 3.675 1.7055 3.384 1.81875C2.99925 1.96875 2.724 2.1465 2.43525 2.43525C2.16153 2.70154 1.95089 3.02571 1.81875 3.384C1.7055 3.675 1.57125 4.1115 1.5345 4.91625C1.49475 5.78625 1.4865 6.04725 1.4865 8.25C1.4865 10.4527 1.49475 10.7137 1.5345 11.5837C1.57125 12.3885 1.7055 12.825 1.81875 13.116C1.95075 13.4737 2.1615 13.7985 2.43525 14.0647C2.7015 14.3385 3.02625 14.5492 3.384 14.6812C3.675 14.7945 4.1115 14.9287 4.91625 14.9655C5.78625 15.0052 6.0465 15.0135 8.25 15.0135C10.4535 15.0135 10.7137 15.0052 11.5837 14.9655C12.3885 14.9287 12.825 14.7945 13.116 14.6812C13.5007 14.5312 13.776 14.3535 14.0647 14.0647C14.3385 13.7985 14.5492 13.4737 14.6812 13.116C14.7945 12.825 14.9287 12.3885 14.9655 11.5837C15.0052 10.7137 15.0135 10.4527 15.0135 8.25C15.0135 6.04725 15.0052 5.78625 14.9655 4.91625C14.9287 4.1115 14.7945 3.675 14.6812 3.384C14.5312 2.99925 14.3535 2.724 14.0647 2.43525C13.7984 2.16155 13.4743 1.95091 13.116 1.81875C12.825 1.7055 12.3885 1.57125 11.5837 1.5345ZM7.19625 10.7932C7.78474 11.0382 8.44003 11.0713 9.0502 10.8868C9.66036 10.7023 10.1875 10.3117 10.5417 9.78168C10.8959 9.25168 11.055 8.61515 10.992 7.98083C10.929 7.3465 10.6478 6.75373 10.1962 6.30375C9.90843 6.01611 9.56041 5.79586 9.17725 5.65886C8.79409 5.52186 8.38532 5.47152 7.98037 5.51146C7.57542 5.5514 7.18436 5.68063 6.83535 5.88985C6.48634 6.09906 6.18806 6.38306 5.96198 6.72139C5.7359 7.05972 5.58764 7.44397 5.52789 7.84647C5.46813 8.24897 5.49836 8.65972 5.6164 9.04914C5.73445 9.43855 5.93736 9.79696 6.21054 10.0985C6.48372 10.4001 6.82037 10.6374 7.19625 10.7932ZM5.2515 5.2515C5.64527 4.85773 6.11274 4.54538 6.62722 4.33227C7.14171 4.11916 7.69313 4.00948 8.25 4.00948C8.80687 4.00948 9.35829 4.11916 9.87278 4.33227C10.3873 4.54538 10.8547 4.85773 11.2485 5.2515C11.6423 5.64527 11.9546 6.11274 12.1677 6.62722C12.3808 7.14171 12.4905 7.69313 12.4905 8.25C12.4905 8.80687 12.3808 9.35829 12.1677 9.87278C11.9546 10.3873 11.6423 10.8547 11.2485 11.2485C10.4532 12.0438 9.37465 12.4905 8.25 12.4905C7.12534 12.4905 6.04675 12.0438 5.2515 11.2485C4.45625 10.4532 4.00948 9.37465 4.00948 8.25C4.00948 7.12534 4.45625 6.04675 5.2515 5.2515ZM13.431 4.641C13.5286 4.54895 13.6067 4.43826 13.6607 4.31548C13.7148 4.1927 13.7436 4.06033 13.7456 3.9262C13.7475 3.79207 13.7225 3.65891 13.6721 3.53461C13.6217 3.4103 13.5468 3.29738 13.452 3.20253C13.3571 3.10768 13.2442 3.03282 13.1199 2.98239C12.9956 2.93196 12.8624 2.90698 12.7283 2.90894C12.5942 2.91089 12.4618 2.93974 12.339 2.99377C12.2162 3.0478 12.1055 3.12592 12.0135 3.2235C11.8345 3.41327 11.7365 3.66534 11.7403 3.9262C11.7441 4.18705 11.8494 4.43616 12.0339 4.62063C12.2183 4.8051 12.4674 4.91042 12.7283 4.91422C12.9892 4.91803 13.2412 4.82002 13.431 4.641Z" fill="#2C333A"/>
</svg>
