<svg width="31" height="30" viewBox="0 0 31 30" fill="none" xmlns="http://www.w3.org/2000/svg">
<g clip-path="url(#clip0_3193_55819)">
<path d="M5.84375 12.7816L9.15625 14.1879C9.53125 13.4379 9.93229 12.6983 10.3594 11.9691C10.7865 11.2399 11.2396 10.542 11.7188 9.87536L9.25 9.37536L5.84375 12.7816ZM10.6562 15.3129L14.8125 19.4691C16 18.9274 17.1146 18.3129 18.1562 17.6254C19.1979 16.9379 20.0417 16.2712 20.6875 15.6254C22.375 13.9379 23.6146 12.2087 24.4062 10.4379C25.1979 8.66703 25.625 6.66703 25.6875 4.43786C23.4583 4.50036 21.4583 4.92745 19.6875 5.71911C17.9167 6.51078 16.1875 7.75036 14.5 9.43786C13.8542 10.0837 13.1875 10.9274 12.5 11.9691C11.8125 13.0108 11.1979 14.1254 10.6562 15.3129ZM17.8125 12.3129C17.3958 11.8962 17.1875 11.3806 17.1875 10.766C17.1875 10.1514 17.3958 9.63578 17.8125 9.21911C18.2292 8.80245 18.7448 8.59411 19.3594 8.59411C19.974 8.59411 20.4896 8.80245 20.9062 9.21911C21.3229 9.63578 21.5312 10.1514 21.5312 10.766C21.5312 11.3806 21.3229 11.8962 20.9062 12.3129C20.4896 12.7295 19.974 12.9379 19.3594 12.9379C18.7448 12.9379 18.2292 12.7295 17.8125 12.3129ZM17.3438 24.2816L20.75 20.8754L20.25 18.4066C19.5833 18.8858 18.8854 19.3389 18.1562 19.766C17.4271 20.1931 16.6875 20.5941 15.9375 20.9691L17.3438 24.2816ZM27.5312 2.59411C27.7188 5.42745 27.3646 8.01078 26.4688 10.3441C25.5729 12.6774 24.0938 14.8754 22.0312 16.9379L21.9688 17.0004L21.9062 17.0629L22.5938 20.5004C22.6562 20.8129 22.6406 21.1149 22.5469 21.4066C22.4531 21.6983 22.2917 21.9587 22.0625 22.1879L16.7188 27.5629L14.0625 21.3754L8.75 16.0629L2.5625 13.4066L7.9375 8.06286C8.16667 7.8337 8.42708 7.67224 8.71875 7.57849C9.01042 7.48474 9.3125 7.46911 9.625 7.53161L13.0625 8.21911C13.0833 8.19828 13.1042 8.18265 13.125 8.17224C13.1458 8.16182 13.1667 8.1462 13.1875 8.12536C15.25 6.06286 17.4479 4.57849 19.7812 3.67224C22.1146 2.76599 24.6979 2.40661 27.5312 2.59411ZM4.65625 19.8441C5.38542 19.1149 6.27604 18.7452 7.32812 18.7347C8.38021 18.7243 9.27083 19.0837 10 19.8129C10.7292 20.542 11.0885 21.4327 11.0781 22.4847C11.0677 23.5368 10.6979 24.4274 9.96875 25.1566C9.42708 25.6983 8.58854 26.1462 7.45312 26.5004C6.31771 26.8545 4.61458 27.1879 2.34375 27.5004C2.65625 25.2295 2.98438 23.5212 3.32812 22.3754C3.67188 21.2295 4.11458 20.3858 4.65625 19.8441ZM5.96875 21.1879C5.67708 21.5004 5.41667 21.9899 5.1875 22.6566C4.95833 23.3233 4.76042 24.1774 4.59375 25.2191C5.63542 25.0524 6.48958 24.8545 7.15625 24.6254C7.82292 24.3962 8.3125 24.1358 8.625 23.8441C9.02083 23.4899 9.22396 23.0472 9.23438 22.516C9.24479 21.9847 9.0625 21.5212 8.6875 21.1254C8.29167 20.7504 7.82812 20.5681 7.29688 20.5785C6.76562 20.5889 6.32292 20.792 5.96875 21.1879Z" fill="white"/>
</g>
<defs>
<clipPath id="clip0_3193_55819">
<rect width="30" height="29.5789" fill="white" transform="translate(0.5)"/>
</clipPath>
</defs>
</svg>
