<svg width="24" height="24" viewBox="0 0 24 24" fill="none" xmlns="http://www.w3.org/2000/svg">
<g clip-path="url(#clip0_316_55147)">
<path d="M7.19531 9.19687C7.19531 9.49687 7.24531 9.84687 7.29531 10.1469L8.94531 9.79688C8.89531 9.59688 8.89531 9.39687 8.89531 9.19687C8.89531 7.59687 10.1953 6.24687 11.8453 6.24687C12.0453 6.24687 12.2453 6.24688 12.3953 6.29688L12.7453 4.64687C12.4453 4.59687 12.1453 4.54688 11.8453 4.54688C9.24531 4.59688 7.19531 6.64687 7.19531 9.19687Z" fill="#2C333A"/>
<path d="M19.5469 9.25C19.5469 4.95 16.0469 1.5 11.7969 1.5C7.54688 1.5 4.04688 4.95 4.04688 9.25C4.04688 12.25 5.79688 14.85 8.29688 16.15V22.35C8.29688 22.7 8.59687 23 8.94687 23H14.5969C14.9469 23 15.2469 22.7 15.2469 22.35V16.15C17.7969 14.85 19.5469 12.25 19.5469 9.25ZM15.2969 14.15V12.55C15.2969 12.2 14.9969 11.9 14.6469 11.9H8.94687C8.59687 11.9 8.29688 12.2 8.29688 12.55V14.15C6.74688 13.05 5.74687 11.25 5.74687 9.25C5.74687 5.9 8.44688 3.2 11.7969 3.2C15.1469 3.2 17.8469 5.9 17.8469 9.25C17.8469 11.25 16.8469 13.05 15.2969 14.15Z" fill="#2C333A"/>
</g>
<defs>
<clipPath id="clip0_316_55147">
<rect width="24" height="24" fill="white"/>
</clipPath>
</defs>
</svg>
