<svg width="21" height="26" viewBox="0 0 21 26" fill="none" xmlns="http://www.w3.org/2000/svg">
<path d="M4.50515 14.6864L5.51566 13.7344L1.49636 5.5575L3.54292 2.39414L8.31749 12.1296L9.77074 11.8314L4.42171 1.37356H16.5218L11.1728 11.8314L12.626 12.1296L17.4006 2.39414L19.4552 5.5575L15.4278 13.7344L16.442 14.6864L20.8296 6.04219C20.9978 5.74629 20.9897 5.39906 20.8017 5.1157L17.7204 0.372306C17.5361 0.116016 17.3194 0 16.9713 0H3.98027C3.62413 0 3.40745 0.116016 3.2312 0.372306L0.141788 5.1157C-0.0380952 5.39906 -0.0461812 5.74629 0.113897 6.04219L4.50515 14.6864ZM6.18082 6.36739H14.7708V4.99383H6.18082V6.36739ZM10.4776 25.6039C14.5164 25.6039 17.7865 22.3374 17.7865 18.295C17.7865 14.2482 14.5164 10.978 10.4776 10.978C6.42714 10.978 3.16429 14.2482 3.16429 18.295C3.16429 22.3374 6.42714 25.6039 10.4776 25.6039ZM10.4776 24.2339C7.18992 24.2339 4.53421 21.5827 4.53421 18.295C4.53421 15.0073 7.18183 12.3516 10.4776 12.3516C13.7536 12.3516 16.4129 14.9992 16.4129 18.295C16.4129 21.5746 13.7617 24.2339 10.4776 24.2339ZM8.38605 21.98L10.4857 20.4501L12.5692 21.98C12.9237 22.231 13.2891 21.9719 13.1577 21.5705L12.3257 19.0959L14.4451 17.5777C14.741 17.3699 14.6646 16.9019 14.2192 16.9019L11.6273 16.9144L10.8277 14.4317C10.708 14.0412 10.2509 14.0412 10.1276 14.4317L9.33152 16.9144L6.73605 16.9019C6.30597 16.9019 6.18796 17.3546 6.52183 17.5894L8.63765 19.0959L7.81289 21.5705C7.68152 21.9719 8.04691 22.231 8.38605 21.98Z" fill="url(#paint0_linear_3235_56708)"/>
<defs>
<linearGradient id="paint0_linear_3235_56708" x1="10.4748" y1="0" x2="10.4748" y2="25.6039" gradientUnits="userSpaceOnUse">
<stop stop-color="#009BA2"/>
<stop offset="1" stop-color="#6CB49F"/>
</linearGradient>
</defs>
</svg>
