<svg width="40" height="40" viewBox="0 0 40 40" fill="none" xmlns="http://www.w3.org/2000/svg">
<rect width="40" height="40" rx="5" fill="#F9F9F9"/>
<g opacity="0.8">
<path d="M24.0008 14.0002C23.7356 14.0002 23.4812 14.1055 23.2937 14.2931C23.1061 14.4806 23.0008 14.735 23.0008 15.0002V18.8202L22.8608 18.6702L17.7608 14.4602C17.4538 14.2142 17.0838 14.0594 16.6931 14.0134C16.3023 13.9674 15.9065 14.0322 15.5508 14.2002C15.251 14.3437 14.9979 14.5692 14.8209 14.8506C14.644 15.132 14.5503 15.4578 14.5508 15.7902V24.2102C14.5503 24.5426 14.644 24.8684 14.8209 25.1497C14.9979 25.4311 15.251 25.6566 15.5508 25.8002C15.8367 25.9302 16.1468 25.9983 16.4608 26.0002C16.9341 26.0008 17.3932 25.8383 17.7608 25.5402L22.8608 21.3302L23.0008 21.1802V25.0002C23.0008 25.2654 23.1061 25.5198 23.2937 25.7073C23.4812 25.8948 23.7356 26.0002 24.0008 26.0002C24.266 26.0002 24.5204 25.8948 24.7079 25.7073C24.8954 25.5198 25.0008 25.2654 25.0008 25.0002V15.0002C25.0008 14.735 24.8954 14.4806 24.7079 14.2931C24.5204 14.1055 24.266 14.0002 24.0008 14.0002ZM16.5008 23.9102V16.0002L21.3208 20.0002L16.5008 23.9102Z" fill="#2C333A"/>
</g>
<rect x="0.5" y="0.5" width="39" height="39" rx="4.5" stroke="#2C333A" stroke-opacity="0.4"/>
</svg>
