<svg width="37" height="75" viewBox="0 0 37 75" fill="none" xmlns="http://www.w3.org/2000/svg">
<g clip-path="url(#clip0_3079_56176)">
<path d="M2.98143 74.0849C4.66087 74.0849 5.99458 72.8146 5.99458 71.1669V3.08057C5.99458 1.43285 4.66087 0.130859 2.98143 0.130859C1.33371 0.130859 0 1.43285 0 3.08057V71.1669C0 72.8146 1.33371 74.0849 2.98143 74.0849ZM33.2136 74.0849C34.8613 74.0849 36.2267 72.8146 36.2267 71.1669V3.08057C36.2267 1.43285 34.8613 0.130859 33.2136 0.130859C31.5658 0.130859 30.2321 1.43285 30.2321 3.08057V71.1669C30.2321 72.8146 31.5658 74.0849 33.2136 74.0849Z" fill="white" fill-opacity="0.85"/>
</g>
<defs>
<clipPath id="clip0_3079_56176">
<rect width="36.2267" height="74" fill="white" transform="translate(0 0.0849609)"/>
</clipPath>
</defs>
</svg>
