<svg width="24" height="24" viewBox="0 0 24 24" fill="none" xmlns="http://www.w3.org/2000/svg">
<path d="M21 21V6.75L14.25 0H6C5.20435 0 4.44129 0.316071 3.87868 0.87868C3.31607 1.44129 3 2.20435 3 3V21C3 21.7956 3.31607 22.5587 3.87868 23.1213C4.44129 23.6839 5.20435 24 6 24H18C18.7956 24 19.5587 23.6839 20.1213 23.1213C20.6839 22.5587 21 21.7956 21 21ZM14.25 4.5C14.25 5.09674 14.4871 5.66903 14.909 6.09099C15.331 6.51295 15.9033 6.75 16.5 6.75H19.5V21C19.5 21.3978 19.342 21.7794 19.0607 22.0607C18.7794 22.342 18.3978 22.5 18 22.5H6C5.60218 22.5 5.22064 22.342 4.93934 22.0607C4.65804 21.7794 4.5 21.3978 4.5 21V3C4.5 2.60218 4.65804 2.22064 4.93934 1.93934C5.22064 1.65804 5.60218 1.5 6 1.5H14.25V4.5Z" fill="#2C333A"/>
<path d="M6.90621 21.1305C6.61385 21.0136 6.3783 20.7877 6.24921 20.5005C5.95671 19.9185 6.05421 19.3365 6.36921 18.8475C6.66621 18.387 7.15821 17.9955 7.71471 17.667C8.41962 17.2672 9.16475 16.9429 9.93771 16.6995C10.538 15.6204 11.07 14.5047 11.5307 13.359C11.2553 12.7331 11.0393 12.0828 10.8857 11.4165C10.7567 10.8165 10.7072 10.2225 10.8167 9.71248C10.9292 9.18148 11.2277 8.70448 11.7917 8.47798C12.0797 8.36248 12.3917 8.29798 12.6947 8.36248C12.8471 8.39493 12.9904 8.4609 13.1142 8.55559C13.2379 8.65029 13.3391 8.77135 13.4102 8.90998C13.5422 9.15598 13.5902 9.44398 13.6007 9.71698C13.6112 9.99898 13.5827 10.311 13.5302 10.638C13.4042 11.403 13.1252 12.339 12.7502 13.329C13.164 14.214 13.656 15.0604 14.2202 15.858C14.8879 15.8053 15.5594 15.8304 16.2212 15.933C16.7672 16.032 17.3222 16.2255 17.6612 16.6305C17.8412 16.8465 17.9507 17.1105 17.9612 17.4075C17.9717 17.6955 17.8907 17.9805 17.7542 18.252C17.636 18.5036 17.4526 18.719 17.2232 18.876C16.9964 19.0239 16.7287 19.0964 16.4582 19.083C15.9617 19.062 15.4772 18.789 15.0587 18.4575C14.5498 18.0367 14.0913 17.5586 13.6922 17.0325C12.6778 17.1476 11.6755 17.3514 10.6967 17.6415C10.2485 18.4364 9.73682 19.1939 9.16671 19.9065C8.72871 20.4315 8.25321 20.8905 7.77621 21.087C7.50214 21.211 7.19128 21.2265 6.90621 21.1305ZM8.97471 18.279C8.72571 18.393 8.49471 18.513 8.28621 18.636C7.79421 18.927 7.47471 19.2105 7.31571 19.4565C7.17471 19.674 7.17171 19.8315 7.25571 19.998C7.27071 20.031 7.28571 20.052 7.29471 20.064C7.31261 20.0592 7.33015 20.0532 7.34721 20.046C7.55271 19.962 7.87971 19.6935 8.29971 19.188C8.53858 18.8955 8.76382 18.5922 8.97471 18.279ZM11.4347 16.284C11.9356 16.1671 12.441 16.0705 12.9497 15.9945C12.6766 15.5765 12.4214 15.1471 12.1847 14.7075C11.9494 15.2394 11.6993 15.7646 11.4347 16.2825V16.284ZM15.1037 16.959C15.3287 17.2035 15.5477 17.409 15.7562 17.574C16.1162 17.859 16.3667 17.9535 16.5032 17.958C16.5398 17.9628 16.5768 17.9548 16.6082 17.9355C16.6706 17.8862 16.7192 17.8216 16.7492 17.748C16.8025 17.6566 16.8329 17.5537 16.8377 17.448C16.8368 17.4127 16.823 17.3791 16.7987 17.3535C16.7207 17.2605 16.4987 17.1255 16.0217 17.04C15.7183 16.9892 15.4113 16.9627 15.1037 16.9605V16.959ZM12.1187 11.7C12.245 11.2928 12.3452 10.8779 12.4187 10.458C12.4652 10.176 12.4832 9.94348 12.4757 9.76048C12.4761 9.65952 12.4599 9.55918 12.4277 9.46348C12.3527 9.47277 12.2794 9.49299 12.2102 9.52348C12.0797 9.57598 11.9732 9.68248 11.9162 9.94798C11.8562 10.236 11.8712 10.6515 11.9852 11.181C12.0212 11.3475 12.0662 11.5215 12.1202 11.7H12.1187Z" fill="#2C333A"/>
</svg>
