<svg width="26" height="26" viewBox="0 0 26 26" fill="none" xmlns="http://www.w3.org/2000/svg">
<path d="M3.5 10.2357L6.8125 11.642C7.1875 10.892 7.58854 10.1524 8.01562 9.42321C8.44271 8.69405 8.89583 7.99613 9.375 7.32946L6.90625 6.82946L3.5 10.2357ZM8.3125 12.767L12.4688 16.9232C13.6562 16.3815 14.7708 15.767 15.8125 15.0795C16.8542 14.392 17.6979 13.7253 18.3438 13.0795C20.0312 11.392 21.2708 9.6628 22.0625 7.89196C22.8542 6.12113 23.2812 4.12113 23.3438 1.89196C21.1146 1.95446 19.1146 2.38155 17.3438 3.17321C15.5729 3.96488 13.8438 5.20446 12.1562 6.89196C11.5104 7.5378 10.8438 8.38155 10.1562 9.42321C9.46875 10.4649 8.85417 11.5795 8.3125 12.767ZM15.4688 9.76696C15.0521 9.3503 14.8438 8.83467 14.8438 8.22009C14.8438 7.60551 15.0521 7.08988 15.4688 6.67321C15.8854 6.25655 16.401 6.04821 17.0156 6.04821C17.6302 6.04821 18.1458 6.25655 18.5625 6.67321C18.9792 7.08988 19.1875 7.60551 19.1875 8.22009C19.1875 8.83467 18.9792 9.3503 18.5625 9.76696C18.1458 10.1836 17.6302 10.392 17.0156 10.392C16.401 10.392 15.8854 10.1836 15.4688 9.76696ZM15 21.7357L18.4062 18.3295L17.9062 15.8607C17.2396 16.3399 16.5417 16.793 15.8125 17.2201C15.0833 17.6472 14.3438 18.0482 13.5938 18.4232L15 21.7357ZM25.1875 0.0482143C25.375 2.88155 25.0208 5.46488 24.125 7.79821C23.2292 10.1315 21.75 12.3295 19.6875 14.392L19.625 14.4545L19.5625 14.517L20.25 17.9545C20.3125 18.267 20.2969 18.569 20.2031 18.8607C20.1094 19.1524 19.9479 19.4128 19.7188 19.642L14.375 25.017L11.7188 18.8295L6.40625 13.517L0.21875 10.8607L5.59375 5.51696C5.82292 5.2878 6.08333 5.12634 6.375 5.03259C6.66667 4.93884 6.96875 4.92321 7.28125 4.98571L10.7188 5.67321C10.7396 5.65238 10.7604 5.63676 10.7812 5.62634C10.8021 5.61592 10.8229 5.6003 10.8438 5.57946C12.9062 3.51696 15.1042 2.03259 17.4375 1.12634C19.7708 0.220089 22.3542 -0.139286 25.1875 0.0482143ZM2.3125 17.2982C3.04167 16.569 3.93229 16.1993 4.98438 16.1888C6.03646 16.1784 6.92708 16.5378 7.65625 17.267C8.38542 17.9961 8.74479 18.8868 8.73438 19.9388C8.72396 20.9909 8.35417 21.8815 7.625 22.6107C7.08333 23.1524 6.24479 23.6003 5.10938 23.9545C3.97396 24.3086 2.27083 24.642 0 24.9545C0.3125 22.6836 0.640625 20.9753 0.984375 19.8295C1.32812 18.6836 1.77083 17.8399 2.3125 17.2982ZM3.625 18.642C3.33333 18.9545 3.07292 19.444 2.84375 20.1107C2.61458 20.7774 2.41667 21.6315 2.25 22.6732C3.29167 22.5065 4.14583 22.3086 4.8125 22.0795C5.47917 21.8503 5.96875 21.5899 6.28125 21.2982C6.67708 20.944 6.88021 20.5013 6.89062 19.9701C6.90104 19.4388 6.71875 18.9753 6.34375 18.5795C5.94792 18.2045 5.48438 18.0222 4.95312 18.0326C4.42188 18.043 3.97917 18.2461 3.625 18.642Z" fill="url(#paint0_linear_3235_56707)"/>
<defs>
<linearGradient id="paint0_linear_3235_56707" x1="12.6181" y1="0" x2="12.6181" y2="25.017" gradientUnits="userSpaceOnUse">
<stop stop-color="#009BA2"/>
<stop offset="1" stop-color="#6CB49F"/>
</linearGradient>
</defs>
</svg>
