<svg width="80" height="80" viewBox="0 0 80 80" fill="none" xmlns="http://www.w3.org/2000/svg">
<g opacity="0.8">
<g clip-path="url(#clip0_503_39253)">
<g opacity="0.8">
<path d="M33.3346 55.0003L53.3346 40.0003L33.3346 25.0003V55.0003ZM40.0013 6.66699C21.6013 6.66699 6.66797 21.6003 6.66797 40.0003C6.66797 58.4003 21.6013 73.3337 40.0013 73.3337C58.4013 73.3337 73.3346 58.4003 73.3346 40.0003C73.3346 21.6003 58.4013 6.66699 40.0013 6.66699ZM40.0013 66.667C25.3013 66.667 13.3346 54.7003 13.3346 40.0003C13.3346 25.3003 25.3013 13.3337 40.0013 13.3337C54.7013 13.3337 66.668 25.3003 66.668 40.0003C66.668 54.7003 54.7013 66.667 40.0013 66.667Z" fill="white"/>
</g>
</g>
</g>
<defs>
<clipPath id="clip0_503_39253">
<rect width="80" height="80" rx="40" transform="matrix(-1 0 0 1 80 0)" fill="white"/>
</clipPath>
</defs>
</svg>
