<svg width="74" height="84" viewBox="0 0 74 84" fill="none" xmlns="http://www.w3.org/2000/svg">
<g clip-path="url(#clip0_3079_55926)">
<path d="M5.09598 83.981C6.74833 83.981 8.13275 83.3695 9.87774 82.3474L69.3642 47.7327C72.6945 45.7711 74 44.3938 74 42.1094C74 39.8251 72.6945 38.4477 69.3642 36.5359L9.87774 1.87152C8.13275 0.865075 6.74833 0.272461 5.09598 0.272461C1.96658 0.272461 0 2.61354 0 6.34403V77.8748C0 81.6055 1.96658 83.981 5.09598 83.981ZM6.86388 76.7848C6.44156 76.7848 6.16516 76.4775 6.16516 75.8783V8.34047C6.16516 7.71052 6.44156 7.43413 6.86388 7.43413C7.15569 7.43413 7.44751 7.56463 7.75479 7.77575L65.3526 41.1912C65.7406 41.4177 66.1252 41.6907 66.1252 42.1094C66.1252 42.5283 65.7406 42.8355 65.3526 43.0276L7.75479 76.4775C7.44751 76.6543 7.15569 76.7848 6.86388 76.7848Z" fill="white" fill-opacity="0.85"/>
</g>
<defs>
<clipPath id="clip0_3079_55926">
<rect width="74" height="83.7927" fill="white" transform="translate(0 0.188477)"/>
</clipPath>
</defs>
</svg>
