<svg width="40" height="40" viewBox="0 0 40 40" fill="none" xmlns="http://www.w3.org/2000/svg">
<g opacity="0.6">
<rect width="40" height="40" rx="5" transform="matrix(-1 0 0 1 40 0)" fill="#F9F9F9"/>
<g opacity="0.8">
<path d="M15.9992 14.0002C16.2644 14.0002 16.5188 14.1055 16.7063 14.2931C16.8939 14.4806 16.9992 14.735 16.9992 15.0002V18.8202L17.1392 18.6702L22.2392 14.4602C22.5462 14.2142 22.9162 14.0594 23.3069 14.0134C23.6977 13.9674 24.0935 14.0322 24.4492 14.2002C24.749 14.3437 25.0021 14.5692 25.1791 14.8506C25.356 15.132 25.4497 15.4578 25.4492 15.7902V24.2102C25.4497 24.5426 25.356 24.8684 25.1791 25.1497C25.0021 25.4311 24.749 25.6566 24.4492 25.8002C24.1633 25.9302 23.8532 25.9983 23.5392 26.0002C23.0659 26.0008 22.6068 25.8383 22.2392 25.5402L17.1392 21.3302L16.9992 21.1802V25.0002C16.9992 25.2654 16.8939 25.5198 16.7063 25.7073C16.5188 25.8948 16.2644 26.0002 15.9992 26.0002C15.734 26.0002 15.4796 25.8948 15.2921 25.7073C15.1046 25.5198 14.9992 25.2654 14.9992 25.0002V15.0002C14.9992 14.735 15.1046 14.4806 15.2921 14.2931C15.4796 14.1055 15.734 14.0002 15.9992 14.0002ZM23.4992 23.9102V16.0002L18.6792 20.0002L23.4992 23.9102Z" fill="#2C333A"/>
</g>
<rect x="-0.5" y="0.5" width="39" height="39" rx="4.5" transform="matrix(-1 0 0 1 39 0)" stroke="#2C333A" stroke-opacity="0.4"/>
</g>
</svg>
