<svg width="21" height="29" viewBox="0 0 21 29" fill="none" xmlns="http://www.w3.org/2000/svg">
<g clip-path="url(#clip0_3197_55972)">
<path d="M3.45445 26.9713H16.9467C19.2325 26.9713 20.4012 25.7998 20.4012 23.5456V11.5633C20.4012 9.30911 19.2325 8.13758 16.9467 8.13758H13.6009V9.58837H16.9116C18.2061 9.58837 18.954 10.2902 18.954 11.6433V23.4656C18.954 24.8187 18.2061 25.5206 16.9116 25.5206H3.48153C2.16071 25.5206 1.45078 24.8187 1.45078 23.4656V11.6433C1.45078 10.2902 2.16071 9.58837 3.48153 9.58837H6.80754V8.13758H3.45445C1.16871 8.13758 0 9.29821 0 11.5633V23.5456C0 25.8107 1.16871 26.9713 3.45445 26.9713ZM10.1984 17.9481C10.586 17.9481 10.9179 17.6243 10.9179 17.2448V4.62841L10.8657 2.92145L11.9088 4.00051L13.9008 6.07332C14.0321 6.21723 14.2157 6.29282 14.3955 6.29282C14.7598 6.29282 15.0512 6.01391 15.0512 5.64606C15.0512 5.45809 14.9712 5.31418 14.8354 5.17836L10.7182 1.14734C10.542 0.971094 10.3863 0.907227 10.1984 0.907227C10.0185 0.907227 9.85922 0.971094 9.67488 1.14734L5.55047 5.17836C5.41465 5.31418 5.3427 5.45809 5.3427 5.64606C5.3427 6.01391 5.61797 6.29282 5.99391 6.29282C6.16571 6.29282 6.36539 6.21723 6.49313 6.07332L8.48063 4.00051L9.53543 2.91782L9.48328 4.62841V17.2448C9.48328 17.6243 9.80707 17.9481 10.1984 17.9481Z" fill="#333333"/>
</g>
<defs>
<clipPath id="clip0_3197_55972">
<rect width="20.4012" height="27.7622" fill="white" transform="translate(0 0.907227)"/>
</clipPath>
</defs>
</svg>
