<svg width="26" height="26" viewBox="0 0 26 26" fill="none" xmlns="http://www.w3.org/2000/svg">
<g clip-path="url(#clip0_3232_56695)">
<path d="M0.671875 11.7847C0.671875 14.1776 1.8543 15.9226 3.47628 15.9226C5.10191 15.9226 6.29243 14.1776 6.29243 11.7847C6.29243 9.4034 5.10191 7.65039 3.47628 7.65039C1.8543 7.65039 0.671875 9.4034 0.671875 11.7847ZM6.35911 5.01929C6.35911 7.40781 7.5577 9.14547 9.17161 9.14547C10.8053 9.14547 11.9995 7.39246 11.9995 5.01929C11.9995 2.62996 10.809 0.888672 9.17161 0.888672C7.5577 0.888672 6.35911 2.62269 6.35911 5.01929ZM14.0196 5.01929C14.0196 7.39246 15.202 9.14547 16.8357 9.14547C18.4496 9.14547 19.6482 7.40781 19.6482 5.01929C19.6482 2.62269 18.4496 0.888672 16.8357 0.888672C15.1983 0.888672 14.0196 2.62996 14.0196 5.01929ZM19.7149 11.7847C19.7149 14.1776 20.909 15.9226 22.531 15.9226C24.1566 15.9226 25.3354 14.1776 25.3354 11.7847C25.3354 9.4034 24.1566 7.65039 22.531 7.65039C20.909 7.65039 19.7149 9.4034 19.7149 11.7847ZM4.07488 21.102C4.07488 23.4183 5.71585 25.0913 8.06324 25.0913C9.23067 25.0913 10.0926 24.7487 10.9048 24.4456C11.5865 24.1822 12.223 23.9531 13 23.9531C13.7654 23.9531 14.4018 24.1822 15.0916 24.4456C15.9074 24.7487 16.7613 25.0913 17.9287 25.0913C20.2805 25.0913 21.9215 23.4183 21.9215 21.102C21.9215 19.0028 20.6273 17.9216 19.4417 16.9469C18.7899 16.424 18.187 15.9427 17.7905 15.3155C17.4753 14.8209 17.1969 14.2576 16.9544 13.7076C16.1324 11.9138 15.3737 10.0475 13 10.0475C10.6146 10.0475 9.86032 11.9174 9.04926 13.6959C8.79508 14.2467 8.53926 14.791 8.23574 15.2703C7.82395 15.9048 7.20566 16.4204 6.55832 16.9469C5.36546 17.9252 4.07488 19.0182 4.07488 21.102Z" fill="white" fill-opacity="0.85"/>
</g>
<defs>
<clipPath id="clip0_3232_56695">
<rect width="24.6635" height="24.2224" fill="white" transform="translate(0.671875 0.888672)"/>
</clipPath>
</defs>
</svg>
