<svg width="24" height="24" viewBox="0 0 24 24" fill="none" xmlns="http://www.w3.org/2000/svg">
<path d="M13.5 12C14.3167 12 15.0125 11.7125 15.5875 11.1375C16.1625 10.5625 16.45 9.86667 16.45 9.05C16.45 8.23333 16.1625 7.5375 15.5875 6.9625C15.0125 6.3875 14.3167 6.1 13.5 6.1C12.6833 6.1 11.9875 6.3875 11.4125 6.9625C10.8375 7.5375 10.55 8.23333 10.55 9.05C10.55 9.86667 10.8375 10.5625 11.4125 11.1375C11.9875 11.7125 12.6833 12 13.5 12ZM6.5 17.525C7.35 16.4417 8.38333 15.5833 9.6 14.95C10.8167 14.3167 12.1167 14 13.5 14C14.8833 14 16.1833 14.3167 17.4 14.95C18.6167 15.5833 19.65 16.4417 20.5 17.525V3.5H6.5V17.525ZM6.5 19C6.08333 19 5.72917 18.8542 5.4375 18.5625C5.14583 18.2708 5 17.9167 5 17.5V3.5C5 3.08333 5.14583 2.72917 5.4375 2.4375C5.72917 2.14583 6.08333 2 6.5 2H20.5C20.9167 2 21.2708 2.14583 21.5625 2.4375C21.8542 2.72917 22 3.08333 22 3.5V17.5C22 17.9167 21.8542 18.2708 21.5625 18.5625C21.2708 18.8542 20.9167 19 20.5 19H6.5ZM3.5 22C3.08333 22 2.72917 21.8542 2.4375 21.5625C2.14583 21.2708 2 20.9167 2 20.5V6.25H3.5V20.5H17.75V22H3.5ZM13.5 10.5C13.1 10.5 12.7583 10.3583 12.475 10.075C12.1917 9.79167 12.05 9.45 12.05 9.05C12.05 8.65 12.1917 8.30833 12.475 8.025C12.7583 7.74167 13.1 7.6 13.5 7.6C13.9 7.6 14.2417 7.74167 14.525 8.025C14.8083 8.30833 14.95 8.65 14.95 9.05C14.95 9.45 14.8083 9.79167 14.525 10.075C14.2417 10.3583 13.9 10.5 13.5 10.5ZM8.825 17.5H18.175C17.575 16.85 16.8708 16.3542 16.0625 16.0125C15.2542 15.6708 14.4 15.5 13.5 15.5C12.6 15.5 11.7458 15.6708 10.9375 16.0125C10.1292 16.3542 9.425 16.85 8.825 17.5Z" fill="black"/>
</svg>
