<svg width="19" height="16" viewBox="0 0 19 16" fill="none" xmlns="http://www.w3.org/2000/svg">
<path d="M17.5 1.49973C16.7818 2.00634 15.9866 2.39381 15.145 2.64723C14.6933 2.12786 14.093 1.75975 13.4253 1.59267C12.7576 1.4256 12.0546 1.46763 11.4116 1.71307C10.7685 1.95851 10.2163 2.39553 9.82974 2.96502C9.44314 3.5345 9.24077 4.20898 9.25 4.89723V5.64723C7.93198 5.68141 6.62596 5.38909 5.44826 4.79631C4.27056 4.20354 3.25774 3.32871 2.5 2.24973C2.5 2.24973 -0.5 8.99973 6.25 11.9997C4.7054 13.0482 2.86537 13.5739 1 13.4997C7.75 17.2497 16 13.4997 16 4.87473C15.9993 4.66582 15.9792 4.45743 15.94 4.25223C16.7055 3.49735 17.2456 2.54426 17.5 1.49973V1.49973Z" stroke="#2C333A" stroke-width="1.8" stroke-linecap="round" stroke-linejoin="round"/>
</svg>
