<svg width="16" height="21" viewBox="0 0 16 21" fill="none" xmlns="http://www.w3.org/2000/svg">
<path d="M2.70921 20.4412H13.2907C15.0834 20.4412 16 19.5225 16 17.7546V8.35723C16 6.58932 15.0834 5.67053 13.2907 5.67053H10.6667V6.80834H13.2632C14.2785 6.80834 14.865 7.35876 14.865 8.41998V17.6918C14.865 18.753 14.2785 19.3035 13.2632 19.3035H2.73045C1.69457 19.3035 1.1378 18.753 1.1378 17.6918V8.41998C1.1378 7.35876 1.69457 6.80834 2.73045 6.80834H5.33893V5.67053H2.70921C0.916581 5.67053 0 6.58077 0 8.35723V17.7546C0 19.531 0.916581 20.4412 2.70921 20.4412ZM7.99827 13.3646C8.30226 13.3646 8.56256 13.1107 8.56256 12.8131V2.9184L8.52162 1.57969L9.33969 2.42596L10.9019 4.0516C11.0049 4.16446 11.1489 4.22374 11.2899 4.22374C11.5756 4.22374 11.8042 4.005 11.8042 3.71651C11.8042 3.56909 11.7414 3.45623 11.6349 3.34971L8.40594 0.188317C8.26775 0.0500891 8.14564 0 7.99827 0C7.85718 0 7.73227 0.0500891 7.5877 0.188317L4.35305 3.34971C4.24653 3.45623 4.19011 3.56909 4.19011 3.71651C4.19011 4.005 4.40599 4.22374 4.70083 4.22374C4.83557 4.22374 4.99217 4.16446 5.09235 4.0516L6.65108 2.42596L7.47833 1.57684L7.43743 2.9184V12.8131C7.43743 13.1107 7.69137 13.3646 7.99827 13.3646Z" fill="#333333"/>
</svg>
