<svg width="25" height="25" viewBox="0 0 25 25" fill="none" xmlns="http://www.w3.org/2000/svg">
<path d="M0 10.896C0 13.2889 1.18242 15.0339 2.80441 15.0339C4.43004 15.0339 5.62055 13.2889 5.62055 10.896C5.62055 8.51473 4.43004 6.76172 2.80441 6.76172C1.18242 6.76172 0 8.51473 0 10.896ZM5.68723 4.13062C5.68723 6.51914 6.88582 8.2568 8.49973 8.2568C10.1334 8.2568 11.3276 6.50379 11.3276 4.13062C11.3276 1.74129 10.1371 0 8.49973 0C6.88582 0 5.68723 1.73402 5.68723 4.13062ZM13.3477 4.13062C13.3477 6.50379 14.5301 8.2568 16.1638 8.2568C17.7777 8.2568 18.9763 6.51914 18.9763 4.13062C18.9763 1.73402 17.7777 0 16.1638 0C14.5264 0 13.3477 1.74129 13.3477 4.13062ZM19.043 10.896C19.043 13.2889 20.2371 15.0339 21.8591 15.0339C23.4847 15.0339 24.6635 13.2889 24.6635 10.896C24.6635 8.51473 23.4847 6.76172 21.8591 6.76172C20.2371 6.76172 19.043 8.51473 19.043 10.896ZM3.40301 20.2133C3.40301 22.5296 5.04398 24.2026 7.39137 24.2026C8.55879 24.2026 9.4207 23.86 10.2329 23.5569C10.9146 23.2935 11.5511 23.0644 12.3281 23.0644C13.0935 23.0644 13.7299 23.2935 14.4197 23.5569C15.2355 23.86 16.0894 24.2026 17.2568 24.2026C19.6086 24.2026 21.2496 22.5296 21.2496 20.2133C21.2496 18.1141 19.9554 17.0329 18.7698 16.0582C18.118 15.5353 17.5151 15.054 17.1186 14.4268C16.8034 13.9322 16.525 13.3689 16.2825 12.8189C15.4605 11.0251 14.7018 9.15879 12.3281 9.15879C9.94277 9.15879 9.18844 11.0287 8.37738 12.8072C8.1232 13.358 7.86738 13.9023 7.56387 14.3816C7.15207 15.0161 6.53379 15.5317 5.88645 16.0582C4.69359 17.0365 3.40301 18.1295 3.40301 20.2133Z" fill="url(#paint0_linear_3235_56705)"/>
<defs>
<linearGradient id="paint0_linear_3235_56705" x1="12.3317" y1="0" x2="12.3317" y2="24.2026" gradientUnits="userSpaceOnUse">
<stop stop-color="#009BA2"/>
<stop offset="1" stop-color="#6CB49F"/>
</linearGradient>
</defs>
</svg>
