<svg width="24" height="24" viewBox="0 0 24 24" fill="none" xmlns="http://www.w3.org/2000/svg">
<path d="M19.2008 2.40039H15.6008V3.60039H8.40078V2.40039H4.80078V20.4004H8.40078V19.2004H15.6008V20.4004H19.2008V2.40039ZM7.20078 3.60039V4.80039H6.00078V3.60039H7.20078ZM18.0008 3.60039V4.80039H16.8008V3.60039H18.0008ZM15.6008 4.80039V10.8004H8.40078V4.80039H15.6008ZM7.20078 6.00039V7.20039H6.00078V6.00039H7.20078ZM18.0008 6.00039V7.20039H16.8008V6.00039H18.0008ZM7.20078 8.40039V9.60039H6.00078V8.40039H7.20078ZM18.0008 8.40039V9.60039H16.8008V8.40039H18.0008ZM7.20078 10.8004V12.0004H6.00078V10.8004H7.20078ZM18.0008 10.8004V12.0004H16.8008V10.8004H18.0008ZM15.6008 12.0004V18.0004H8.40078V12.0004H15.6008ZM7.20078 13.2004V14.4004H6.00078V13.2004H7.20078ZM18.0008 13.2004V14.4004H16.8008V13.2004H18.0008ZM7.20078 15.6004V16.8004H6.00078V15.6004H7.20078ZM18.0008 15.6004V16.8004H16.8008V15.6004H18.0008ZM7.20078 18.0004V19.2004H6.00078V18.0004H7.20078ZM18.0008 18.0004V19.2004H16.8008V18.0004H18.0008Z" fill="#2C333A"/>
</svg>
