<svg width="24" height="24" viewBox="0 0 24 24" fill="none" xmlns="http://www.w3.org/2000/svg">
<path d="M12 22.25C6.34614 22.25 1.75 17.6539 1.75 12C1.75 6.34614 6.34614 1.75 12 1.75C17.6539 1.75 22.25 6.34614 22.25 12C22.25 17.6539 17.6539 22.25 12 22.25ZM12 2.25C6.62386 2.25 2.25 6.62386 2.25 12C2.25 17.3761 6.62386 21.75 12 21.75C17.3761 21.75 21.75 17.3761 21.75 12C21.75 6.62386 17.3761 2.25 12 2.25Z" fill="#EC0000" stroke="#EC0000"/>
<path d="M9.34631 15.0063L9.34022 15.0124L9.33433 15.0187C9.30409 15.0511 9.24522 15.0799 9.16986 15.0799C9.10532 15.0799 9.04471 15.0576 8.99342 15.0063C8.89868 14.9116 8.89868 14.7482 8.99342 14.6534L14.6534 8.99342C14.7482 8.89868 14.9116 8.89868 15.0063 8.99342C15.101 9.08815 15.101 9.25157 15.0063 9.34631L9.34631 15.0063Z" fill="#EC0000" stroke="#EC0000"/>
<path d="M14.8299 15.5799C14.6399 15.5799 14.4499 15.5099 14.2999 15.3599L8.63986 9.69986C8.34986 9.40986 8.34986 8.92986 8.63986 8.63986C8.92986 8.34986 9.40986 8.34986 9.69986 8.63986L15.3599 14.2999C15.6499 14.5899 15.6499 15.0699 15.3599 15.3599C15.2099 15.5099 15.0199 15.5799 14.8299 15.5799Z" fill="#EC0000"/>
</svg>
